<svg version="1.1" id="Layer_1" xmlns="http://www.w3.org/2000/svg" xmlns:xlink="http://www.w3.org/1999/xlink" x="0px" y="0px"
	 width="100%" viewBox="0 0 225 225" enable-background="new 0 0 225 225" xml:space="preserve">
<path fill="#FFCB01" opacity="1.000000" stroke="none" 
	d="
M131.000000,226.000000 
	C87.333336,226.000000 44.166672,226.000000 1.000006,226.000000 
	C1.000004,151.000000 1.000004,76.000015 1.000002,1.000016 
	C75.999992,1.000011 150.999985,1.000011 225.999969,1.000005 
	C225.999985,75.999985 225.999985,150.999969 226.000000,225.999969 
	C194.500000,226.000000 163.000000,226.000000 131.000000,226.000000 
M209.695267,136.098328 
	C212.470093,122.979889 213.643890,109.787308 211.925354,96.400154 
	C207.525513,62.126244 190.507248,36.996895 158.302353,23.304991 
	C139.442276,15.286623 119.591873,13.733624 99.463715,17.039770 
	C23.241302,29.559668 -1.021050,108.763344 26.824575,161.841705 
	C42.992096,192.659698 70.125275,207.166977 103.963440,210.545654 
	C154.428711,215.584534 197.126068,185.784927 209.695267,136.098328 
z"/>
<path fill="#FDFCFA" opacity="1.000000" stroke="none" 
	d="
M209.579956,136.498276 
	C197.126068,185.784927 154.428711,215.584534 103.963440,210.545654 
	C70.125275,207.166977 42.992096,192.659698 26.824575,161.841705 
	C-1.021050,108.763344 23.241302,29.559668 99.463715,17.039770 
	C119.591873,13.733624 139.442276,15.286623 158.302353,23.304991 
	C190.507248,36.996895 207.525513,62.126244 211.925354,96.400154 
	C213.643890,109.787308 212.470093,122.979889 209.579956,136.498276 
M58.481071,52.970078 
	C29.894777,79.217743 23.263786,125.282211 43.321327,158.282486 
	C65.816536,195.293411 120.868111,207.272797 158.993332,182.805862 
	C188.521759,163.855927 199.033234,135.221542 196.329697,101.496246 
	C193.820709,70.197929 178.148727,47.098892 148.037552,36.639942 
	C115.917740,25.483295 85.676514,30.329197 58.481071,52.970078 
z"/>
<path fill="#040302" opacity="1.000000" stroke="none" 
	d="
M58.740746,52.726936 
	C85.676514,30.329197 115.917740,25.483295 148.037552,36.639942 
	C178.148727,47.098892 193.820709,70.197929 196.329697,101.496246 
	C199.033234,135.221542 188.521759,163.855927 158.993332,182.805862 
	C120.868111,207.272797 65.816536,195.293411 43.321327,158.282486 
	C23.263786,125.282211 29.894777,79.217743 58.740746,52.726936 
M129.975922,49.461376 
	C125.361748,50.678730 120.747574,51.896080 116.295364,53.070702 
	C115.612617,63.779491 112.928352,67.979401 105.661644,70.158966 
	C98.464668,72.317619 94.514023,70.526810 88.172905,62.432423 
	C87.598755,61.699524 86.254097,60.903080 85.494881,61.085178 
	C77.625473,62.972664 69.802834,65.055122 61.604172,67.177353 
	C71.235077,105.581566 80.729874,143.443054 90.310905,181.648392 
	C99.101875,179.363953 107.397484,177.208237 115.533142,175.094086 
	C115.638710,164.660233 118.246758,160.483383 125.606071,158.354370 
	C133.203827,156.156372 137.487518,158.340042 143.840683,167.777664 
	C152.049744,165.553680 160.329315,163.310577 168.910614,160.985748 
	C159.427872,122.601944 150.083984,84.780251 140.702133,46.804909 
	C136.892868,47.739815 133.830170,48.491486 129.975922,49.461376 
z"/>
<path fill="#FBC800" opacity="1.000000" stroke="none" 
	d="
M130.371704,49.352268 
	C133.830170,48.491486 136.892868,47.739815 140.702133,46.804909 
	C150.083984,84.780251 159.427872,122.601944 168.910614,160.985748 
	C160.329315,163.310577 152.049744,165.553680 143.840683,167.777664 
	C137.487518,158.340042 133.203827,156.156372 125.606071,158.354370 
	C118.246758,160.483383 115.638710,164.660233 115.533142,175.094086 
	C107.397484,177.208237 99.101875,179.363953 90.310905,181.648392 
	C80.729874,143.443054 71.235077,105.581566 61.604172,67.177353 
	C69.802834,65.055122 77.625473,62.972664 85.494881,61.085178 
	C86.254097,60.903080 87.598755,61.699524 88.172905,62.432423 
	C94.514023,70.526810 98.464668,72.317619 105.661644,70.158966 
	C112.928352,67.979401 115.612617,63.779491 116.295364,53.070702 
	C120.747574,51.896080 125.361748,50.678730 130.371704,49.352268 
M94.069244,108.640457 
	C92.482140,113.892357 90.219772,119.049713 89.468124,124.418579 
	C88.374039,132.233490 87.780960,140.224045 88.093979,148.095184 
	C88.321686,153.820938 92.059761,158.197815 97.425156,160.772629 
	C103.233292,163.559906 107.060875,163.034302 110.173103,157.427200 
	C113.274178,151.840210 115.515068,145.676620 117.389236,139.538696 
	C118.928566,134.497406 116.616196,131.187103 111.484673,129.863831 
	C108.668488,129.137604 105.710678,128.960587 101.642319,128.363602 
	C106.119392,116.872398 110.423485,105.825203 114.898064,94.340431 
	C116.843376,95.922318 117.935707,96.932152 119.145027,97.773911 
	C126.147324,102.647896 130.430084,101.907555 134.601807,94.396889 
	C137.163757,89.784424 139.156296,84.782501 140.820084,79.761780 
	C143.216614,72.529991 139.736572,67.775337 132.031845,67.133232 
	C123.022537,66.382393 115.800682,70.105446 111.218704,77.476517 
	C105.101501,87.317307 99.919037,97.739143 94.069244,108.640457 
z"/>
<path fill="#060400" opacity="1.000000" stroke="none" 
	d="
M94.202179,108.275940 
	C99.919037,97.739143 105.101501,87.317307 111.218704,77.476517 
	C115.800682,70.105446 123.022537,66.382393 132.031845,67.133232 
	C139.736572,67.775337 143.216614,72.529991 140.820084,79.761780 
	C139.156296,84.782501 137.163757,89.784424 134.601807,94.396889 
	C130.430084,101.907555 126.147324,102.647896 119.145027,97.773911 
	C117.935707,96.932152 116.843376,95.922318 114.898064,94.340431 
	C110.423485,105.825203 106.119392,116.872398 101.642319,128.363602 
	C105.710678,128.960587 108.668488,129.137604 111.484673,129.863831 
	C116.616196,131.187103 118.928566,134.497406 117.389236,139.538696 
	C115.515068,145.676620 113.274178,151.840210 110.173103,157.427200 
	C107.060875,163.034302 103.233292,163.559906 97.425156,160.772629 
	C92.059761,158.197815 88.321686,153.820938 88.093979,148.095184 
	C87.780960,140.224045 88.374039,132.233490 89.468124,124.418579 
	C90.219772,119.049713 92.482140,113.892357 94.202179,108.275940 
z"/>
</svg>